<?xml version="1.0" encoding="UTF-8"?>
<svg id="Layer_1" xmlns="http://www.w3.org/2000/svg" version="1.1" viewBox="0 0 288 288">
  <!-- Generator: Adobe Illustrator 29.8.4, SVG Export Plug-In . SVG Version: 2.1.1 Build 6)  -->
  <defs>
    <style>
      .st0 {
        fill: #020202;
      }

      .st1 {
        fill: #636363;
      }

      .st2 {
        fill: #fdfdfd;
      }
    </style>
  </defs>
  <g>
    <path d="M59.4,249.7v1.3h-2.7v-1.3h-4v-2.7h1.3v-1.3h1.3v-1.3h1.3v-1.3h2.7v5.3h1.3v1.4h-1.3ZM56.7,245.7h-1.3v1.3h-1.3v1.3h2.6v-2.6Z"/>
    <path d="M70.1,249.7v1.3h-5.4v-1.3h-1.3v-5.4h1.3v-1.3h5.4v1.3h1.3v5.4h-1.3ZM68.7,244.3h-2.7v5.3h2.7v-5.3Z"/>
    <path d="M80.7,249.7v1.3h-2.7v-1.3h-4v-2.7h1.3v-1.3h1.3v-1.3h1.3v-1.3h2.7v5.3h1.3v1.4h-1.3ZM78,245.7h-1.3v1.3h-1.3v1.3h2.6v-2.6Z"/>
    <path d="M84.7,247v-2.7h2.7v2.7h-2.7ZM84.7,251v-2.7h2.7v2.7h-2.7Z"/>
    <path d="M100.7,247v1.3h-4v2.7h-2.7v-8h6.7v1.3h1.3v2.7h-1.3ZM99.4,244.3h-2.7v2.6h2.7v-2.6Z"/>
    <path d="M106,251v-1.3h-1.3v-1.4h1.3v-1.3h4v-1.3h-4v-1.4h5.4v1.3h1.3v5.4h-6.7ZM110,248.3h-2.7v1.3h2.7v-1.3Z"/>
    <path d="M122.1,245.7v1.3h1.3v5.4h-1.3v1.3h-5.4v-1.4h4v-1.3h-4v-1.3h-1.3v-4h1.3v-1.3h8v1.4h-2.7ZM120.7,245.7h-2.7v4h2.7v-4Z"/>
    <path d="M128.7,248.3v1.3h4v1.4h-5.4v-1.3h-1.3v-4h1.3v-1.3h5.4v1.3h1.3v2.7h-5.3ZM131.4,245.7h-2.7v1.3h2.7v-1.3Z"/>
    <path d="M146,251v-5.3h-1.3v1.3h-1.4v4h-2.7v-6.7h2.7v1.3h1.3v-1.3h4v6.7h-2.7Z"/>
    <path d="M158.1,249.7v1.3h-5.4v-1.3h-1.3v-4h1.3v-1.3h5.4v1.3h1.3v4h-1.3ZM156.7,245.7h-2.7v4h2.7v-4Z"/>
    <path d="M166.1,245.7v5.3h-2.7v-4h1.3v-1.3h-2.7v-1.4h1.3v-1.3h2.7v1.3h1.3v1.4h-1.3Z"/>
    <path d="M175.4,243v1.3h2.7v1.4h-1.3v5.3h-2.7v-5.3h-1.3v-1.4h1.3v-1.3h1.3v-1.3h4v1.4h-4Z"/>
    <path d="M186.1,249.7v1.3h-5.4v-1.3h-1.3v-4h1.3v-1.3h5.4v1.3h1.3v4h-1.3ZM184.7,245.7h-2.7v4h2.7v-4Z"/>
    <path d="M196.7,249.7v1.3h-5.4v-1.3h-1.3v-5.4h2.7v5.3h2.7v-5.3h2.7v5.4h-1.3Z"/>
    <path d="M206.1,251v-5.3h-1.3v1.3h-1.4v4h-2.7v-6.7h2.7v1.3h1.3v-1.3h4v6.7h-2.7Z"/>
    <path d="M212.7,251v-1.3h-1.3v-4h1.3v-1.3h4v-2.7h2.7v9.4h-6.7ZM216.7,245.7h-2.7v4h2.7v-4Z"/>
    <path d="M226,247v-2.7h2.7v2.7h-2.7ZM226,251v-2.7h2.7v2.7h-2.7Z"/>
    <path d="M232.7,244.3v1.3h-1.4v-1.4h1.3v-1.3h-1.3v-1.4h2.7v2.7h-1.3Z"/>
    <path d="M239.4,253.7v-1.3h-1.3v-1.3h-1.3v-6.7h1.3v-1.3h1.3v-1.3h1.4v1.4h-1.3v1.3h-1.3v6.6h1.3v1.3h1.3v1.4h-1.4Z"/>
  </g>
  <g>
    <g>
      <path class="st2" d="M239,145.4c0,.5.1,2.5,0,2.7s-1.2.1-1.3.3.1.7-.4,1.1c-.9.7-4.4-.2-4.8.5s0,.8-.3,1.1-1.7,0-1.8,0,0,2.7,0,2.7,1.8-.1,2,.3-.2,2,.1,2.5,2.1,0,2.2.2-.2,1.4.2,1.7,2.3-.2,2.7.3,0,2.4.4,2.7,2.4-.2,3,0,.3,1.3.7,1.3h3.3v3.3s-.3.3-.3.3h-4c0-.4-.1-2.6-.2-2.7-.4-.4-3.3,1.1-2.5-2.1-.4,0-2.8.2-3,0s.3-1-.6-1.1-2.7,0-2.9.1c-.3.2-.3,1.2-.1,1.5.5.7,2.7.2,3.1.5s0,1.3.6,1.5,2.7-.1,2.8,0,0,1.5,0,1.6,1.9-.2,2.1.4,0,2,0,2.1c-.2.3-3.5.4-3.9.2s0-1.3-.2-1.5-.5,0-.6-.1c-.3-.2-.2-.7-.3-.8-.2-.2-1.5,0-1.9,0s0-.6-.3-.7-1.8-.3-2-.2c-.5.2-.3.9-.7,1.1s-1.5,0-2.1,0c-.3-2.2.7-1.4,2.2-1.6s-.5-1-.5-1.1c-.1-.3,0-.9,0-1-.1-.1-2.9-.1-3,0s.1,1.5,0,1.6-2.2.2-2.3.2,0,1.5,0,1.8c.1.1,2.3,0,2.8,0s1.6.6,1.7.7c.1.2,0,1.6,0,1.8-.3.5-3.3,0-4,.5s-.1,1.2-.2,1.3-2.8,0-3.1,0c-1.1-.2-.2-1.8-.8-2.2s-2.4,0-2.5,0,.2-1.4-.2-1.7-1.8,0-2.4-.1-.2-1.3-.4-1.5-2.2-.2-2.3-.3c-.2-.2,0-5.5-.2-6.4.5,0,2.2,0,2.5-.3s.9-4.3.8-5c.3-.5,2.1,0,2.2-.2s-.2-1.2,0-1.6,1.4-.1,1.5-.2c.2-.2-.3-2.1.2-2.6s4.1-.1,4.4-.3-.5-2.4,1.5-1.8-.3.8,1.2.9,3.7-.4,5.6-.2c0-.2.2-1.6.2-1.6h6.4ZM220.2,160.5c.1.1,3.1,0,3.7,0,.1-1.6,0-.9-.7-1.2s-.2-.5-.6-.6-1.3,0-1.4-.1,0-.6-.2-.8c-.4-.3-1.9,0-2.5-.1-.6,2.2,1.6,1.3,1.8,1.6s0,1.1,0,1.1Z"/>
      <path class="st2" d="M187.7,110.9l2.1-.4c.3-1.3-.7-6.2-.1-7s1.9-.1,2.4-.2c0,1.7,0,3.4,0,5.2s.3,1.1.3,1.6-.2,2.1-.3,2.2-1.8,0-1.8,0v8.4c0,.5-2.5.5-2.5,0v-9.7Z"/>
      <path class="st2" d="M212.7,151.6c0-.9,0-1.8,0-2.7,2.7-.3,2.3.4,2.3,2.7-.8,0-1.5,0-2.3,0,0,.7.1,3.1,0,3.4-.3.5-2,0-2.2.2s.1,3.8,0,3.9-1.4-.3-1.6.4c-.3,1,.4,4.9.2,5.1h-2.3v-9.4c.6,0,3.4.2,3.4-.3v-3.3c.8,0,1.7,0,2.5,0Z"/>
      <path class="st2" d="M204.9,140.6c0,0,0-.8,0-.9-.3-.3-2.2.8-1.6-2.3h9.3c.5,0,.5,3.2,0,3.2-1,0-7.4.3-7.7,0Z"/>
      <path class="st2" d="M195.5,130.3c0-.4-.2-2.3.3-2.3h4c0-.4,0-2.2,0-2.3s2.3,0,2.7,0c-.1.6.2,2.1-.1,2.5s-2.5,0-2.6.2,0,1.7-.4,1.8c-.7.2-3,0-4,0,0,.7,0,1.4,0,2.1h-2.7v-2.1c.9,0,1.8,0,2.7,0Z"/>
      <path class="st2" d="M203.1,140.4c-.1.6.2,2.6-.2,2.9s-4-.4-4.8-.1v-2.7c1.7-.3,3.3-.2,5,0Z"/>
      <path class="st2" d="M192.6,124.8c0-.4,0-2.6,0-2.7s1.7.2,2.1,0,.1-1.4.2-1.5,2.1,0,2.5,0c.8,3.5-2.1,1.8-2.5,2.3s.1,2,0,2.1-1.9,0-2.3,0c0,.7,0,1.4,0,2.1h-2.3s0-2.1,0-2.1c.8,0,1.5,0,2.3,0Z"/>
      <path class="st2" d="M232.8,169.9h-2.5s0-2.3,0-2.3c2.3-.1,2.8-.2,2.5,2.3Z"/>
      <path class="st2" d="M216.1,147.3v1.7c-1.3.6-1.3-2,0-1.7Z"/>
      <path class="st0" d="M220.2,160.5c0,0,0-1.1,0-1.1-.3-.3-2.5.6-1.8-1.6.6.1,2.1-.2,2.5.1s.1.7.2.8,1,0,1.4.1.4.5.6.6c.7.3.9-.5.7,1.2-.5,0-3.5.1-3.7,0Z"/>
    </g>
    <g>
      <path class="st0" d="M122.3,35.1l.2-3.4c.9-.2,6.1,0,6.4-.3s.3-1.7.3-2c4.3.3,8.9-.3,13.2,0s1,.7,1.5,1c.7.5,5.7-.3,6.4.2s0,1.8.2,2,3,.3,3.4.2c.1.1.1,2.5.3,2.8s2,0,2,.6v5.8h2.7c.7,3-.3,6.1,0,9s2,.1,2.9,1.2c.3,1.1-.3,8.7,0,9s2.9-.4,3,.8v18.8c0,1.1-2.5.3-2.7.6-.8,4.1.6,2.1,2.4,2.8s.2.8.5.9c.7.2,2.5-.2,3.4,0s1.6.5,1.7.6c.5.4-.1,1.7.6,1.9,1.3.4,5.7-.4,6.6.2s-.3,1.8.5,2.1l7.9.3c0,.5-.2,1.6.4,1.8,1.1.2,6.9,0,7.3.7s0,2.2.1,2.3,2.3,0,2.5.2-.3,7.7,0,8,2.6-.4,2.9.6-.4,7.2.3,7.6,2-.1,2.2.6-.2,6,0,6.3,2.2,0,2.5.3.3,2.8.3,3.4h3.3c.2,0,1.1.4,1,.8.2,1.2,0,7.7.3,8.1s2.1,0,2.4.5-.3,1.5.4,1.8,2.9,0,3.1,0c.1.4.1,2.9.2,3s2.6-.3,2.9.6-.3,3.6.1,4.2,1.5,0,2,.3,0,1.3.6,1.5c1.9.6,4-1.2,4,2.5,1-.3,7.9,0,8.2-.2s0-1.7,0-2.1h10.8v6.2h-3.3c-.6.3-.3,2-.6,2.3-.5.4-4.5.2-5.5.3.1.5,0,4,.2,4.1s2.1-.2,2.5.1.1.6.3.7.7,0,.8.4,0,1.4,0,1.5,1.4,0,2,.1c1.2.3.5,1.3.7,1.5s2.8.2,2.9.3.1.6.2.7c.2.2.6.1.8.4s.1.7.3.8c.4.3,1.1,0,1.4.1s.2,1.7.3,1.8c.4.4,2.3-1.3,1.8,2.6s-1.5.4-2,1,.2,1.6-.3,2c-.7.5-4.9-.2-6,.1s-.1,2-.7,2h-15c0,1.1,0,2.1-.3,3.2-.7.1-3.5,0-3.9.4-.6.4.3,2-.8,2.2s-4.3,0-4.5-.1c-.4-.3-.4-2.1-.4-2.2s-2,.1-2.1,0,.2-1.2-.1-1.6-2.1-.4-2.2-.4,0-1.7,0-1.8-1.7,0-1.8,0,0-1.8-.3-2.2-1.9-.2-2-.3.2-1.2,0-1.6-1.5,0-1.9-.4,0-2,0-2.1-2,.1-2.1,0,.2-2.2-.3-2.5-1.6.2-1.9-.2.2-2.1-.2-2.8-1.6-.3-1.9-.5-.1-1.7-.5-1.9-1.5,0-1.6,0c-.2-.2,0-5-.3-5.7-1-.6-4.2.2-4.7-.7v-12.6c-.1,0-2.2,0-2.2,0v30c0,.1,2-.2,2.3.4v16.6c.2.7,1.9.3,2.5.4v34.6l-8.5.2-.4,2.3c-2.1.4-8-.6-9.7.1s-.1,2.3-.3,3h-27.9c-.1-.6.2-2.3,0-2.8s-2.1.2-2.4-.6,0-4.2-.3-4.4c-1.3,0-2.5,0-3.6.5l-.3,4.3h-6.7c-.9,0,.2,4.6-.3,5.3h-18.3c0-.5.2-3-.3-3h-5.9s-.3-.3-.3-.3v-3.7c0-.5-3.1-.5-3.4-.2s-.1,1.7-.2,2.2h-13.4c-1.4.2-.4-1.8-1-2.2s-2.3,0-3-.1c.8,4.5-2.3,2-3.2,2.8s-.3,2.3-.3,2.7h-9.8v-2.5s-2.5,0-2.5,0v-5.9c.3,0,1.3,0,1.4,0s0-1.5,0-1.6c-.1-.1-1.4.1-1.6,0s0-.7-.4-.9-1.7.2-2.2-.1.1-3.6-.3-4.3-2.3.1-2.9-.6v-11.6c0-1.2,2.5-.2,2.5-1v-4.5h2.5v-5.9c0-.1,2.1,0,2.3-.6.3-1.1-.3-8,0-8.3s1.8.3,2.3-.3,0-4.9.2-5.2,1.8.3,2-.4-.2-6.3,0-6.5,2.2.4,2.5-.4,0-4.7,0-4.9c-.3-.4-1.7-.1-2.2-.2v-7.6h2.1s.2-9.5.2-9.5l2.5-.4v-9.8h2.5v-11.6c0-.7,2.3,0,2.5-.7v-16.6c.4-.5,2.5-.3,2.6-.4s-.2-2.3.3-2.3h5.4c.4-.6,0-2.7.3-3,.5-.5,4.3,0,4.7-.3s.2-2,.3-2c.2-.2,3.7.3,4.4-.2s0-1.9.1-1.9h3.8c.5,0,.3-1.8.3-1.8.3-.3,5.1,0,5.3-.2s0-1.2.2-1.5c-2.9,0-1.7-.5-2.1-2.3s-3.5,0-3.9-.9-.3-7.4,0-7.6,1.6.3,2.1-.3,0-2.1.2-2.9h3.3s.3-.3.3-.3v-4l-3.4-.2v-8.2c0-.1-2.4.4-2.3-.6v-15.8c0-1,1.9-.4,2.1-.6s-.2-2.5,0-3,1.5-.1,1.5-.2v-4.5s.3-.3.3-.3h3.7s.3-.3.3-.3v-3.3h5ZM132.6,34.5h5.6c1.2,0,.6,1.1.9,1.4s4.8.3,5,0,0-1.2,0-1.6h-4.9c-.5,0-.3-1.8-.3-1.8-.2-.2-5.9,0-6.2.1-.4.3-.2,1.5-.2,2ZM146.1,35.4c.5.6.3,2.7.6,3s2.1.6,2.2-.6c.3-2.8-.3-2.5-2.8-2.4ZM125.7,43.4c-.1.1-2.9,0-3.4,0,.2,1.1-.6,2.6.8,2.8,2.8.4,1.7-.5,2.3-1.4s4.3,0,5.3-.2,0-.8.3-1.1c1-.7,3.6,1.1,3-1.9-1.7-.2-3.4.1-5.1.2s-3-.1-3.1,0,0,1.5,0,1.6ZM135.1,45.7c-.1.1-3.6,0-4.2,0s-.3.3-.3.3v4.8c0,.6,2.4.2,2.5.3.2.2,0,6,0,6.3-.3.9-2-.2-2.3.9-.4,2.3.4,5.5.2,7.9l2.5.2v5.3l-3.9.5c.8,0,1,0,1.2.7.6,1.8.7,4,.6,5.9.4,0,2,0,2.2.3s.2,1.7.3,1.8,2.1.2,2.5.2v2.7c-.7,0-1.7.1-2.4,0s-.6-.5-1-.6c-.5-.2-1.4.2-1.6-.4s0-1.4,0-1.5-2.1,0-2.1-.2v-4.5c0-.6-2.7-.2-2.8,0,.3,1.1,0,8.3.2,8.6s1.7-.1,1.8,0c.4.4.3,5.3.5,5.5s2-.1,2.1,0-.2,1.2.2,1.5,1.9-.2,2.2.3,0,1.7.1,1.8,2.2.1,2.5.3,0,1.3.2,1.5c.2.3,2.2.1,2.5.4s.1,1.4.2,1.5c.2.2,4.4,0,4.6-.2s-.1-2,0-2.1,1.6,0,1.8-.3-.2-1.1.4-1.3,1.6,0,1.7,0,0-1.7,0-1.8,2,.1,2.1,0-.3-1.9.2-2.2,1.7,0,1.8,0,.3-2.1-.1-2.1h-4.3c-.6,0-.5-.9-.7-.9-.7-.2-2.2.2-2.9-.2s-.2-1-.4-1.1c-.6-.5-2.5.9-2-1.9h17.3c.6,0,.2-1.9.4-2.3s1.3,0,1.5-.2.5-3.4.5-4-.2-4.8,0-4.9,1.5,0,1.6,0c.3-.3-.3-7.7-.5-8.7-2.8.1-1.5-.2-1.8-2s-.6-.5-.7-.7c0-.4.1-1.8,0-1.9s-2.1-.2-2.5-.2c0-2.5.6-3.9-2.5-3v3.2c.4,0,2.2,0,2.3,0s-.1,2.6.3,3,1.6-.2,1.9.2.3,6,.1,6.2-1.1-.1-1.5,0-.2.8-.5.9-2.8,0-3.2,0c-.8-.2-.7-1.9-.6-2,.2-.2,3.1-.3,3.6-.2-.1-.8.1-1.9,0-2.6s-.6-.5-.7-.7c-.1-.4.2-1.3,0-1.6s-2-.2-2-.3.1-2.2,0-2.3c-.2-.2-1.9.5-2.1-.6s0-4.2,0-4.4c.2-.3,1.7-.2,1.8-.3.1-.1-.2-1.4.1-1.6.5-.4,2.3-.1,2.4-.2.4-.4-.7-7.9-.5-9.2-2.5.3-1.5-.9-1.9-1.4s-3.5-.4-4-.2-.1,1.3-.9,1.3h-13.9c-.6.1-.3,2.4-.4,2.5ZM122.8,73.4c.2.2,5.2,0,6.1,0s.5-3.3.3-3.4-1.5,0-1.6,0c-.2-.2,0-3.8-.2-3.9s-1.1,0-1.1,0,0-.9,0-1.2-.7-.3-.8-.4,0-.8-.3-1-.9-.1-1.2-.3-.1-.7-.4-.8c-.3-.2-2.3-.2-2.6,0s0,.8-.3,1.1-1.3,0-1.4,0,0,2.9,0,3.3.2,2.3.2,2.4,1.1,0,1.1,0-.1,2.2.3,2.8,1.8,0,2,.2,0,1.1,0,1.1ZM117,81.4c-.5,0-2.7-.2-2.7.3v5.1h2.7v-5.5ZM145.6,96.9c-.2.2,0,3.7,0,4.3s1.1,0,1.5,0c1.1.4.4,3.4.6,3.6s1.7,0,1.8,0,0,.7,0,1,.5.5.6,1,0,1.6,0,1.7,2,0,2.1,0c.4-.4-1-2.5,2.5-1.8v-5.3c0-.1,1.4.4,1.6-.6s0-3.3,0-4.6-.1-2.8-.2-4.6,0-2.8,0-4.2h-1.4s0,3,0,3c-.4.2-2.6.1-2.7.2s.2,1.2-.2,1.5c-.9.6-2.3-.9-1.8,2.4-3.3-.7-1.8,1.7-2.5,2.2s-1.7,0-1.8,0ZM124.6,87.8v4.7c0,.5,1.5.2,1.6.7.3,1.1-.3,8,0,8.3s2.1-.2,2.1.3v4.7c.5,0,2.3-.1,2.5,0s.2,1.2.3,1.3c.2.2,1,0,1.1,0s0,1.3,0,1.4,2.1,0,2.5,0v-3.7c.6,0,1.8.3,1.8-.6v-3.5c.3,0,1.8,0,1.8,0s0-2.1-.1-2.3c-.3-.4-1.4,0-1.7-.3s0-1.5-1.6-1.3l.2-.9c-.3-.2-1.5-.2-1.6-.2,0,0,0-.8,0-.9s-1.6,0-2.1-.3-.1-1.4-.2-1.5-1.4.2-1.8,0,0-2.5-.2-2.6-1.7.2-2.1,0-.1-1-.2-1c-.1-.1-1,0-1.1,0-.2-.2.6-2.5-1.1-2.1ZM164.9,88.3c-.3,1,.2,3.3,0,4.5.3,0,1.3,0,1.4,0,.3.3,0,4.9.2,5s1.7,0,1.8.4l.2,7.2h-3.4c.6,1.8-2.1.4-2.6,1.1s-.2,2.2,0,2.5c.4.9,2.6.2,2.9.5s.2,1.7.3,1.8,2.1,0,2.3,0c.4-.3.2-1.5.2-2h-2.7s0-2.3,0-2.3c.5,0,2.9.1,3,0s-.2-.9.4-1.1c.8-.3,3.2.3,3.8-.1s.3-2.8.1-3.1c-.4-.5-2,.2-2-.8v-4.2c0-.1-2.1.1-2.1,0v-5.5c0,0-1,.2-1.3-.2s-.2-3.1-.6-3.6-1.6-.5-1.8,0ZM118.9,93c-.6,0-1.8-.3-2,.4l-.3,9.7h2.1s.2-10.1.2-10.1ZM145.4,101.3h-5c-.4,2.2,2,1.2,3.4,1.4v4.3c.4,0,1,.1,1.5,0,.9-.2-.1-4.8.2-5.7ZM140.6,102.9h-2.3v4.1c.4,0,2,0,2.1,0s0,1.7,0,1.8,3,0,3.2-.3,0-1.2,0-1.6h-3s0-4.1,0-4.1ZM116.6,103.3c-.6.1-2.3-.3-2.5.4s-.3,6.3,0,6.5,2.2-.1,2.3,0-.2.9.4,1.1c1.5.5,4.1-1.1,3.5,1.7s-2.3.3-2.5.6,0,1.7,0,1.8c-.1.1-1.9-.3-2.2.2s-.2,3.3-.1,3.4,2.1,0,2.3.2,0,3.6.3,3.9c.4.4,2.3-.3,2.3,1.1v4.7l3,.2v4.3c0,.1,2,0,2.3.3s-.3,3.3.1,3.9,2,0,2.2.2-.2,2.3,0,2.8,1.4,0,1.7.2,0,3.4.3,3.6,1.7.2,1.8.2c.1.1.1,3.5.2,3.7s1.9,0,2.3,0v3.4h2.5v-3.8c0-.7-2.5.2-2.5-.9v-3.3c-.4,0-2,0-2.1,0s.1-2.4,0-2.5-1.7,0-2.1,0v-4.5c0-.6-2-.3-2.1-.3s.1-2.9,0-3-2.3-.1-2.3-.2v-4.3h-2.5v-4.1s-.7,0-.9,0c-.2-.2-.2-1.7-.3-1.8-.2-.2-2.1.4-2.1-.6v-3.3c0-.1-2.1.1-2.1,0v-3.4c.5-.2,1.6.3,1.9.2.7-.2.1-1.6.6-1.9s1.8,0,1.8,0v-3.2c-1.1-.2-2.6.6-2.3-.9h-3.4v-6.4ZM187.7,110.9v9.7c0,.5,2.5.5,2.5,0v-8.4c0,0,1.7,0,1.8,0s.3-1.9.3-2.2c0-.5-.2-1-.3-1.6,0-1.7,0-3.4,0-5.2-.6,0-2.1-.2-2.4.2-.6.8.5,5.7.1,7l-2.1.4ZM149.3,107h-3.2c.4,2.9-.7,1.3-1.6,1.9s-.2,4.5-.2,5.3c.1,3.4.6,6.9.7,10.3.2,5.4-.1,10.8,0,16.1h-2.1l-.5-27.7h-2.1s.4,16.1.4,16.1c-1.2.9-1.8.4-2-.9-.8-5.5.6-12.8,0-18.5s-.1-.8-.4-.8h-3.3c-.1,0,.2,1.7-.3,2.2s-3.4.4-3.7-.2c-.8-1.2,1.2-2.6-3.1-2.1-.4,2.2.8,1.1,1.1,1.4s-.2,2.3,0,2.8,2.4-.3,2.4.8v7.4h2.5c0,.9-.1,5.8.2,6.2s2,0,2.1.4l.2,6.5c.4,0,2.2,0,2.3,0,.2.2,0,4.7.3,5s1.8,0,2,.2c.3.3-.3,6.2,0,7.1l3.1.5c.1.9,0,5.9.4,6.4s2.1.1,2.6.2l.2-13.7,2.1-.4c.3-1.3-.4-10.5,0-10.8s2.1.4,2.3-.4v-8.9c.1-.4,2.2-.4,2.6-.4-.4-1.6.8-8.7.1-9.6s-2.1-.3-2.2-.2c-.4.4,1,1.5-1.5,1.6s-1-.5-1.3-1.7-.7-1.3-.4-2.2ZM168.8,110.9v5.9c0,0-1.5.2-1.6.2-.3.3,0,3.5-.2,4s-1.1.1-1.2.5c-.1.6.2,3.4,0,3.5s-2,0-2.3.3.1,3.9,0,4.1-2.5-.3-2.5.3v4.9h-2.5v5.8c0,.6,2.7.3,2.7.1v-5.8c0-.6,2.5-.2,2.5-.3v-5c.4,0,2.2,0,2.3,0,.2-.2,0-4.2.2-4.3s1.7,0,2.1,0c.3-.9,0-6.4.2-6.6s2-.2,2-.2c.2-.2-.2-3.7,0-4.1s2-.2,2-.3c.1-.1,0-2.8,0-3-.3-.3-3.3-.3-3.9,0ZM100.8,129.6v-3.7c0-.1-2.3.1-2.3,0v-5.4c0-.6-2.2-.2-2.3-.3-.2-.2.3-5.9-.2-6.3s-2.6-.3-2.7.3-.1,6,0,6.3c.2.8,2.3.2,2.5.4s-.2,4.1,0,4.9,2.1.2,2.3.4-.2,2.7,0,3.2,2.1.1,2.6.2ZM192.6,124.8c.4,0,2.2,0,2.3,0s-.1-2,0-2.1c.5-.5,3.3,1.2,2.5-2.3-.4,0-2.4,0-2.5,0s.2,1.2-.2,1.5-2,0-2.1,0,0,2.3,0,2.7c-.8,0-1.5,0-2.3,0v2.1s2.3,0,2.3,0c0-.7,0-1.4,0-2.1ZM195.5,130.3c.9,0,3.3.2,4,0s.3-1.8.4-1.8c.2-.2,2.3.3,2.6-.2s0-1.9.1-2.5c-.4,0-2.7,0-2.7,0s0,1.9,0,2.3h-4c-.5,0-.3,1.8-.3,2.3-.9,0-1.8,0-2.7,0v2.1s2.7,0,2.7,0c0-.7,0-1.4,0-2.1ZM100.8,139v-3.9c0,0-1.5.2-1.8,0s-.1-1.2-.2-1.3-2,.1-2.1,0,.1-2,0-2.1-2,.1-2.1,0,.1-2.2,0-2.3-2.3,0-2.7,0c0,.8-.1,1.7,0,2.4s2.3.3,2.5.4c.5.3.1,1.6.2,1.7s1.7,0,1.8,0-.2,1.6.2,2,1.7,0,1.8,0c.5.5-1.4,3.8,2.3,3ZM204.9,140.6c.3.3,6.6,0,7.7,0s.5-3.2,0-3.2h-9.3c-.6,3.1,1.3,2,1.6,2.3s0,.8,0,.9ZM203.1,140.4c-1.7-.2-3.3-.3-5,0v2.7c.9-.3,4.4.4,4.8.1s.1-2.3.2-2.9ZM158.5,141.5h-2.7v4.1h2.7v-4.1ZM108.1,146.6c-3,0-6,0-9,0-.5.2-.6,2.2-1,2.3s-2.7,0-2.9,0,0-.7-.3-.7c-3.6-.7-2,1.9-2.4,2.3s-1-.2-1.3.2,0,1.6,0,1.6h-3.7c0,1.1,0,2.3,0,3.4s-.2.2-.2.5h-3.2s0,3.2,0,3.2c-.4,0-.9-.1-1.1.4-.3.9.2,5,0,5.3s-2,.2-2,.3c-.2.2.2,6.4,0,6.6s-2.5-.3-2.5.3v6.5c0,.1-2.3-.1-2.3,0v7.8c-.6,0-2.3-.2-2.6.2s.2,5.6-.4,6.2-1.8.2-1.8.3v5.7l-3,.2v10.3h2.7c.1.4.1,2.9.2,3s2.1-.3,2.4.2,0,2.1,0,2.8c.9.3,6.2,0,6.4.2s-.1,2.2,0,2.3,2.4,0,2.5,0c.2-.2-.3-1.8.4-2,1.1-.4,3.6.3,4.7,0s.3-.9.4-.9h4.6l.2-3.4c.5,0,2.9.1,3,0s0-1.7,0-1.8,1.6,0,2-.3.2-1,.3-1.3c.3-.5,2.6-.2,2.7-.3s0-1.3,0-1.6h4.1c0-.8,0-1.5,0-2.3,1.6,0,3.2,0,4.8,0,0-.5.6-3-.1-3h-4.3c-.5,0-.3,2.4-.3,3-.4,0-.8.2-1.3.2-.8,0-3.5.2-3.7-.4l.2-12.2h2.1s0-7.2,0-7.2c0-.8,1.1-.6,1.6-.6v-11.7h1.4s.2-9.6.2-9.6c3.3.5,2.4-.9,2.5-3.4-.6,0-1.9-.2-2.3.1s-.1.6-.3.8-.6,0-.6.2c0,.4.1,2,0,2.2s-2-.1-2.1,0,0,3.5-.2,3.7-1.4-.3-1.6.4,0,4.8-.3,5.1-2,0-2.1,0c-.3.3-.2,6-.2,6.9-.3,0-2.5,0-2.5.2v5.9h-2.7v7.1c0,.1-1.7-.2-2.1,0s-.1,3.2-.5,3.6-1.4-.2-1.7.2,0,4.5-.4,5.4c-.1.6-1.5.3-1.6.4s.1,1.3-.2,1.7-1.3.3-1.4.4c-.3.3.3,4-.2,4.4s-.9,0-1.1.3,0,1.3-.2,1.6-1,.1-1.2.4,0,2,0,2.1-2.2,0-2.3,0c-.1-.1-.3-3.2-.2-3.5.2-.9,1-.4,1.1-.6s0-1.7,0-1.8c-.3-.4-3.1-.1-3.2-.3s.1-1.7,0-2.1-1-.3-1.1-.4,0-1.7,0-1.8-1,.1-1.1,0c-.3-.3-.4-5.6,0-5.9s1.8,0,2.3,0v4.1l6.8.2c.2,0,.5-.2.5-.3v-3.5c.3,0,1.8,0,1.8,0,.2-.2-.2-3.9.2-4.3s2.1,0,2.5,0v-5.4c0-1.2,2.6,0,2.9-.9s-.2-6.3,0-6.5,2.1.3,2.4-.2.3-2.4.3-2.9-.1-3.4,0-3.6,1.4.2,1.7-.2-.2-3.4.1-4.2,1-.3,1.1-.4,0-1.5,0-1.8,0-1.5,0-1.6c0,0,1.3,0,1.4,0s0-1.7,0-1.8.8,0,.9,0c.1-.1-.2-1.7,0-2.1s1.4-.1,1.5-.2-.1-.9,0-1.2,1-.1,1-.2-.2-.7.1-.9,1.1-.1,1.2-.2,0-.6.1-.9.6-.2.8-.4.2-.4.3-.5c.3-.2,1,0,1.3-.2s.1-1.2.2-1.3,2.6.1,2.7,0,0-.9,0-1.1h8.7s0,.9,0,.9h4.6c-.1-.5.2-2.7,0-3-.4-.5-3.1,0-3.7-.3s-.3-1.2-.4-1.3c-.2-.2-5,0-5.8,0s-2.9-.5-3.8,0-.1,1.2-.2,1.3c-.2.2-4.4-.2-4.8.2s.2,1-.2,1.3-2.1.2-2.6.5-.2.9-.4,1.1-1.7.2-1.8.3c-.1.1.2,1.2-.2,1.5s-1,0-1.3.3,0,2.2,0,2.3-1.1-.3-1.3.4.1,2.9,0,3.1c-.4.4-1.5-1-1.6,1.4-.9.3-1.7.6-2.7.5-.2.2.3,4.5,0,5s-1.6.1-1.7.2.1,1.8-.3,2-2,0-2,0v6.1c0,.6-2.7.3-3.2.3v11.5c-.2.7-2.5,0-2.5.7v5.8c-.6-.1-2.5.3-2.7-.4s-.1-5.2,0-6.1.2-1.6.3-1.7c0-.1.7,0,.7,0v-6.9c0,0,1.2.2,1.5-.2s.2-2.4.3-2.5c.2-.2,2.2-.2,2.3-.2.2-.2-.2-5.8,0-6.2s1.9-.1,2.2-.5c.9-1.2-1.6-3.7,2.8-3v-6.4h2.5c.1-.7-.2-2.5,0-3s2.5,0,2.6-.2-.1-1.5,0-1.6,1.6,0,1.8-.3.3-1.7.3-1.8-1.3-.3-1.5-.2c-.6,0-.5.6-.7.7-.5.1-2.1-.1-2.4,0v-3.2h5.3c0,0-.1-1.2,0-1.3.4-.4,3.5-.1,3.6-.3s0-.9,0-1.1h5.8c.5,0,.3-2,.3-2.5.3,0,.8.2,1.2.2.9,0,6.4.1,6.7-.2s.2-2.3-.2-2.3h-7.7c0,.8,0,1.5,0,2.3ZM239,145.4h-6.4c0,0-.2,1.4-.2,1.6-1.9-.2-3.7.4-5.6.2s-.9-.9-1.2-.9c-2-.5-1.2,1.5-1.5,1.8s-3.6-.4-4.4.3,0,2.5-.2,2.6-1.2-.2-1.5.2,0,1.5,0,1.6-1.9-.3-2.2.2c0,.7-.4,4.8-.8,5s-2,.2-2.5.3c.3.9,0,6.2.2,6.4s2,0,2.3.3-.3,1.3.4,1.5,1.9-.2,2.4.1.1,1.6.2,1.7,2.1-.2,2.5,0-.3,2,.8,2.2,3,.1,3.1,0-.2-1,.2-1.3c.7-.5,3.7,0,4-.5s.2-1.6,0-1.8-1.6-.7-1.7-.7c-.5,0-2.7,0-2.8,0,0-.3,0-1.7,0-1.8s2.2-.2,2.3-.2,0-1.5,0-1.6,2.9-.1,3,0,0,.7,0,1,1.3,1,.5,1.1c-1.4.2-2.4-.6-2.2,1.6.6,0,1.6.2,2.1,0s.3-.9.7-1.1,1.8.1,2,.2c.3.1,0,.7.3.7.4,0,1.7-.2,1.9,0s0,.6.3.8.6,0,.6.1c.2.2-.2,1.2.2,1.5s3.7.2,3.9-.2,0-1.9,0-2.1c-.1-.5-2-.3-2.1-.4s0-1.5,0-1.6c-.1-.1-2.3.1-2.8,0s-.2-1.2-.6-1.5-2.6.2-3.1-.5-.2-1.3.1-1.5,2.5-.2,2.9-.1c.9.2.4,1,.6,1.1s2.5,0,3,0c-.8,3.2,2.1,1.6,2.5,2.1s.2,2.4.2,2.7h4s.3-.3.3-.3v-3.3h-3.3c-.4,0-.2-1.2-.7-1.3s-2.8.2-3,0-.1-2.4-.4-2.7c-.4-.5-2.1,0-2.7-.3s-.1-1.6-.2-1.7-1.9.3-2.2-.2.1-2.1-.1-2.5-2-.2-2-.3,0-2.7,0-2.7,1.5.2,1.8,0,.2-.8.3-1.1c.4-.6,3.9.2,4.8-.5s.2-.9.4-1.1,1.2-.2,1.3-.3c.2-.2,0-2.2,0-2.7ZM153.7,151.2c.5,0,2.5.2,2.5-.3v-4.5l-2.5.2c0,1.5,0,3.1,0,4.6-1.8,0-3-.7-3.2,1.5s1,1.8,3.2,1.9c0-1.1,0-2.3,0-3.4ZM119.8,148.2c.3-2-.7-1.6-2.3-1.6v1.6s2.3,0,2.3,0ZM216.1,147.3c-1.3-.3-1.3,2.3,0,1.7v-1.7ZM212.7,151.6c-.8,0-1.7,0-2.5,0v3.3c0,.6-2.9.3-3.4.3v9.4h2.3c.2-.2-.5-4.1-.2-5.1s1.4-.3,1.6-.4-.1-3.8,0-3.9,1.9.3,2.2-.2,0-2.8,0-3.4c.8,0,1.5,0,2.3,0,0-2.3.4-3.1-2.3-2.7,0,.9,0,1.8,0,2.7ZM133.1,171.2c.2.7-.2,2.5,0,3.3l3,.2v-5.3l2.5-.2.6-9.6c0-.8,2.4-.3,2.8-.9s0-2.7.3-3.4h-5c0,0,0-.8-.4-.9-.5-.1-5.5-.1-6.1,0s0,.7-.2.9-3.6.4-4.4.5-.7.4-1.2.4c-.7,0-1.5,0-2.2,0,0,.8.1,5.4.6,5.5s1.7-.2,1.9,0c.4.4.2,3.6.3,4.3.4.4,3.1,0,3.7.2s.3.7.6.8,1.3,0,1.4.1c.2.1-.3,2.9.2,3.5s1.4-.1,1.6.5ZM117,157.3h-5.1c-.4,0-.4,1.5-.3,1.8h5.5v-1.8ZM152.1,165.1v-4c0-.5-3.2-.5-3.2,0v4h3.2ZM122.3,165.9c.2-.7-.2-2.5,0-3.4,0-.3-2-.5-2.4-.6-.8,0-6,0-6.3.2s.2,1.3-.2,1.6c-.8.6-3.2-.2-4.2.5,0,2.2-.2,4.6,0,6.7s.3,2.8.5,3.6c.3,1.4,1.6.7,1.8.8s0,3.5.5,3.9,2-.2,2.5.1,0,1.5.6,1.7c1.2,0,9.1.3,9.4-.2s0-1.5,0-1.6,2.2,0,2.6,0,1.6-.4,1.7-.5c.1-.1,0-1.3,0-1.6h-2.8c-.3,0,0,1.6-.1,1.6h-9c-.5,0-.5-2.1,0-2.1h9c0,0,0-1.6,0-1.6h4.1c0,0,0-.9,0-1.2s.7,0,.5-1.2-1-.2-1.7-.1-3.7-.1-3.8,0,0,1.1,0,1.4h-8.8c-.4,0-.4-1.5-.3-1.8h9c.5,0,.3-1.4.3-1.4h4.1v-2.5c-1,.2-1.7-.4-2.6-.5-1.5-.1-11,.3-11.3-.3s0-1.3,0-1.3c.2-.3,3.8-.3,4.5-.3s2.2.6,2.4-.1ZM141.5,166.5c-.4,0-1.2-.2-1.3.4-.3,1.2,0,8.6-.5,9s-1.5,0-1.6,0,0,2.1,0,2.5c-.5,0-2.9.1-3,0-.3-.3.7-2.6-.9-2.1v5.3c0,.1,2-.1,2.3.4l.2,7.4h2.3s.2,17.2.2,17.2h4.8c.1,0-.4-1.4.7-1.7s4.9-.2,5.4,0,.2,1.2.6,1.5,1.1,0,1.2,0c.1.1.2,3,.2,3.4h-5.7c0,.6-.3,2.3.4,2.5s.9-.2,1.3-.2,3.7.1,3.8,0-.2-2.1.3-2.1h4.5v-3.7c0,0-1.8,0-1.8,0v-5.4c0-.5-2.3-.3-2.7-.3v-8.5c-.3-.7-2.3-.3-3-.4-.2-1,.3-7.1,0-7.3s-2.1.3-2.4-.2.1-5.5-.3-6-2.2.4-2.5-.4.2-6.3,0-6.5-2.3.2-2.3-.3v-4.5ZM232.8,169.9c.3-2.5-.2-2.4-2.5-2.3v2.3s2.5,0,2.5,0ZM111.6,184.3c-.6,0-1.2,0-1.8,0,.7-3.8-1.4-2.4-1.8-2.7s.4-6.5-.3-7.6-.6-.2-.7-.3c-.4-.3,0-1.3-.7-1.1v9.4c.3,0,1.5,0,1.6,0,.1.1-.1,2.1,0,2.6s1.4.3,1.6.4c.4.4-1.1,2.8,2.3,2.1,0-.9,0-1.8,0-2.7.5,0,1.1,0,1.6,0v-1.8s-1.6,0-1.6,0c0,.6,0,1.2,0,1.8ZM131.7,178.4c-.7-.2-.6.9-.8.9s-1.6-.1-1.7,0l.2,36.2c.5,0,1.2.1,1.7,0s0-.4.5-.5c2.6-.3,6.2.1,8.8.2l-.2-5.3c-.9,0-2.7.2-2.9-.8-.6-3.2.3-7.7,0-11.1-.2-.7-1.7-.3-2.3-.4l-.3-12.9c-.2-.7-2.3-.3-2.9-.4v-5.9ZM124.4,186.2h-4.6c.9,4-3.1,1.5-4.4,2.4s0,3.1-.2,3.3-2.2-.4-2.5.4v14c-2.8-.1-1.9.1-1.9,1.9.1,3.6-.4,8.1,0,11.5s.1.8.4.8h3.5c0,.3,0,2.7.2,2.7h11.1s.3-.3.3-.3v-10c-.2,0-2.1-.1-2.1-.2v-26.5Z"/>
      <path class="st2" d="M149.3,107c-.3.9.2,1.6.4,2.2.3,1.2-.4,1.7,1.3,1.7,2.5,0,1.1-1.3,1.5-1.6s2,0,2.2.2c.6.9-.5,8-.1,9.6-.4,0-2.4,0-2.5.4v8.9c-.2.7-2.1.2-2.3.4-.4.4.3,9.5,0,10.8l-2.1.4-.2,13.7c-.6,0-2.3.2-2.6-.2s-.2-5.4-.4-6.4l-3.1-.5c-.4-.9.2-6.9,0-7.1s-1.6.2-2-.2-.1-4.9-.3-5-1.9,0-2.3,0l-.2-6.5c0-.3-2-.3-2.1-.4-.4-.4-.2-5.3-.2-6.2h-2.5s0-7.4,0-7.4c0-1.1-2-.2-2.4-.8s0-2.6,0-2.8c-.3-.3-1.5.8-1.1-1.4,4.3-.5,2.3.9,3.1,2.1s3.2.6,3.7.2.2-2.2.3-2.2h3.3c.3,0,.3.6.4.8.7,5.6-.8,12.9,0,18.5s.8,1.9,2,.9l-.4-16.1h2.1s.5,27.7.5,27.7h2.1c-.1-5.4.2-10.8,0-16.1s-.6-6.9-.7-10.3-.1-5,.2-5.3c.9-.6,2,1,1.6-1.9h3.2Z"/>
      <path class="st2" d="M124.6,87.8c1.8-.5.9,1.8,1.1,2.1s1-.1,1.1,0-.1.8.2,1,2,0,2.1,0-.3,2.3.2,2.6,1.7,0,1.8,0-.2,1.1.2,1.5,2,.3,2.1.3,0,.8,0,.9,1.3,0,1.6.2l-.2.9c1.7-.2,1.2,1,1.6,1.3s1.4-.1,1.7.3.2,2.2.1,2.3-1.5,0-1.8,0v3.5c0,.8-1.3.6-1.8.6v3.7c-.4,0-2.4,0-2.5,0s0-1.3,0-1.4-.9.1-1.1,0-.2-1.2-.3-1.3c-.2-.2-2,0-2.5,0v-4.7c0-.6-2-.3-2.1-.3-.3-.3.2-7.3,0-8.3,0-.5-1.6-.3-1.6-.7v-4.7Z"/>
      <path class="st2" d="M145.6,96.9c.1-.1,1.4.2,1.8,0,.7-.5-.8-2.9,2.5-2.2-.5-3.3.9-1.8,1.8-2.4s.1-1.4.2-1.5,2.3,0,2.7-.2v-3s1.4,0,1.4,0c0,1.4,0,2.8,0,4.2s.2,2.8.2,4.6.2,3.5,0,4.6-1.6.5-1.6.6v5.3c-3.5-.6-2.1,1.4-2.5,1.8s-2,0-2.1,0,0-1.3,0-1.7-.5-.6-.6-1,0-.9,0-1c0,0-1.7,0-1.8,0-.2-.2.5-3.3-.6-3.6s-1.5,0-1.5,0c0-.6-.2-4.2,0-4.3Z"/>
      <path class="st2" d="M116.6,103.3v6.4h3.4c-.4,1.5,1.2.7,2.3.9v3.2c0,0-1.5-.2-1.8,0s.1,1.7-.6,1.9-1.4-.4-1.9-.2v3.4c0,.1,2.1-.1,2.1,0v3.3c0,1,1.9.4,2.1.6s0,1.6.3,1.8.9,0,.9,0v4.1h2.5v4.3c0,.1,2.2.1,2.3.2s-.1,2.9,0,3,2.1-.2,2.1.3v4.5c.4,0,2,0,2.1,0s-.1,2.4,0,2.5,1.7,0,2.1,0v3.3c0,1.1,2.5.2,2.5.9v3.8h-2.5v-3.4c-.4,0-2.2,0-2.3,0-.1-.1-.1-3.5-.2-3.7s-1.7-.2-1.8-.2c-.2-.2,0-3.4-.3-3.6s-1.4.2-1.7-.2,0-2.6,0-2.8-1.9.3-2.2-.2.1-3.6-.1-3.9-2.3-.1-2.3-.3v-4.3l-3-.2v-4.7c0-1.3-1.9-.6-2.3-1.1s-.1-3.7-.3-3.9-2.2-.2-2.3-.2c-.1-.1,0-3.3.1-3.4.3-.5,2,0,2.2-.2s0-1.7,0-1.8c.3-.3,2.3.5,2.5-.6.5-2.9-2.1-1.2-3.5-1.7s-.3-1-.4-1.1-2.2.1-2.3,0c-.2-.2,0-6.2,0-6.5.2-.7,1.9-.3,2.5-.4Z"/>
      <path class="st2" d="M168.8,110.9c.6-.3,3.6-.3,3.9,0s.1,2.8,0,3-1.8-.1-2,.3.2,3.9,0,4.1-1.9.1-2,.2c-.2.2,0,5.7-.2,6.6-.4,0-2,0-2.1,0-.2.2,0,4.2-.2,4.3s-1.9,0-2.3,0v5c0,.1-2.5-.3-2.5.3v5.8c0,.1-2.7.5-2.7-.1v-5.8h2.5v-4.9c0-.6,2.4-.2,2.5-.3s-.2-3.9,0-4.1,2.2-.2,2.3-.3c.1-.1-.1-3,0-3.5s1.1-.2,1.2-.5c.1-.5,0-3.7.2-4s1.6-.2,1.6-.2v-5.9Z"/>
      <path class="st2" d="M164.9,88.3c.2-.5,1.6-.4,1.8,0,.4.6.4,3.3.6,3.6s1.3.1,1.3.2v5.5c0,.1,2.1-.1,2.1,0v4.2c0,1,1.6.3,2,.8s.2,2.9-.1,3.1c-.6.4-3-.1-3.8.1s-.3,1-.4,1.1-2.5,0-3,0v2.3s2.7,0,2.7,0c0,.5.2,1.7-.2,2s-2.2.2-2.3,0-.2-1.7-.3-1.8c-.2-.2-2.4.4-2.9-.5s-.2-2.2,0-2.5c.5-.8,3.2.7,2.6-1.1h3.4l-.2-7.2c0-.4-1.8-.3-1.8-.4-.2-.2,0-4.8-.2-5s-1.1,0-1.4,0c.2-1.1-.3-3.5,0-4.5Z"/>
      <path class="st2" d="M100.8,129.6c-.6,0-2.3.2-2.6-.2s0-3.1,0-3.2-2,.4-2.3-.4.2-4.7,0-4.9-2.2.4-2.5-.4-.1-6,0-6.3c.2-.5,2.4-.5,2.7-.3.6.4,0,6.1.2,6.3s2.3-.2,2.3.3v5.4c0,.1,2.3-.1,2.3,0v3.7Z"/>
      <path class="st2" d="M100.8,139c-3.6.9-1.8-2.4-2.3-3s-1.4.2-1.8,0,0-1.8-.2-2-1.7,0-1.8,0,.2-1.4-.2-1.7-2.4.5-2.5-.4,0-1.7,0-2.4c.4,0,2.7,0,2.7,0s-.1,2.2,0,2.3,2-.1,2.1,0-.1,2,0,2.1,2-.1,2.1,0-.2,1,.2,1.3,1.8,0,1.8,0v3.9Z"/>
      <path class="st2" d="M118.9,93l-.2,10.1h-2.1s.3-9.7.3-9.7c.2-.6,1.5-.3,2-.4Z"/>
      <path class="st2" d="M140.6,102.9v4.1h3c0,.4.1,1.3,0,1.6s-3.1.4-3.2.3,0-1.7,0-1.8-1.7,0-2.1,0v-4.1h2.3Z"/>
      <path class="st2" d="M145.4,101.3c-.3.9.7,5.5-.2,5.7s-1,0-1.5,0v-4.3c-1.4-.2-3.8.8-3.4-1.4h5Z"/>
      <path class="st2" d="M152.1,165.1h-3.2v-4c0-.5,3.2-.5,3.2,0v4Z"/>
      <path class="st2" d="M153.7,151.2c0-1.5,0-3.1,0-4.6l2.5-.2v4.5c0,.5-2,.3-2.5.3,0,1.1,0,2.3,0,3.4-2.2-.2-3.5.9-3.2-1.9s1.4-1.4,3.2-1.5Z"/>
      <rect class="st2" x="155.7" y="141.5" width="2.7" height="4.1"/>
      <g>
        <path class="st1" d="M93,155c.2-.1,1.9.1,2.4,0s.2-.6.7-.7,1.4.2,1.5.2-.2,1.7-.3,1.8c-.2.2-1.7.2-1.8.3-.1,0,0,1.5,0,1.6-.2.2-2.3-.3-2.6.2s0,2.3,0,3h-2.5s0,6.4,0,6.4c-4.4-.7-2,1.8-2.8,3s-2,.2-2.2.5.2,5.9,0,6.2-2.1,0-2.3.2-.1,2.2-.3,2.5-1.5.1-1.5.2v6.9s-.6,0-.7,0-.2,1.5-.3,1.7c0,.9-.2,5.5,0,6.1s2.1.3,2.7.4v-5.8c0-.7,2.3,0,2.5-.7v-11.5c.6,0,3.2.2,3.2-.3v-6.1c0-.1,1.8.1,2,0s.2-2,.3-2c.1-.1,1.4.2,1.7-.2s-.1-4.9,0-5c1,.1,1.8-.2,2.7-.5-.2,3.2.3,2.5,3.2,2.5,0,.4,0,1.8,0,1.8-.1.1-.9-.2-1.1.4-.3.9.3,3.6-.1,4.2s-1.6.1-1.7.2,0,3,0,3.6-.3,2.7-.3,2.9c-.3.5-2.3,0-2.4.2-.2.2.3,5.6,0,6.5s-2.9-.2-2.9.9v5.4c-.4,0-2.4-.1-2.5,0-.4.4,0,4.2-.2,4.3s-1.5,0-1.8,0v3.5c0,0-.3.4-.5.3l-6.8-.2v-4.1c-.4,0-2.1-.1-2.3,0-.4.3-.3,5.6,0,5.9s1,0,1.1,0-.1,1.7,0,1.8.9-.2,1.1.4,0,2,0,2.1,2.8-.2,3.2.3,0,1.7,0,1.8c-.2.1-1-.3-1.1.6s.1,3.4.2,3.5,2.2,0,2.3,0c.1-.1-.2-1.7,0-2.1s1-.1,1.2-.4,0-1.3.2-1.6.8-.2,1.1-.3c.6-.4,0-4.1.2-4.4s1.1,0,1.4-.4.1-1.6.2-1.7c.1-.1,1.4.3,1.6-.4.3-.9,0-5,.4-5.4s1.6,0,1.7-.2c.3-.3,0-3.3.5-3.6s2.1,0,2.1,0v-7.1h2.7v-5.9c0-.1,2.2-.3,2.5-.2,0-.9,0-6.5.2-6.9s2,0,2.1,0c.3-.3,0-4.5.3-5.1s1.4-.3,1.6-.4,0-3.5.2-3.7,2,.1,2.1,0-.1-1.8,0-2.2.5,0,.6-.2,0-.6.3-.8c.4-.3,1.7,0,2.3-.1,0,2.6.8,3.9-2.5,3.4l-.2,9.6h-1.4s0,11.7,0,11.7c-.5,0-1.6-.2-1.6.6v7.2h-2.1s-.2,12.2-.2,12.2c.2.6,3,.4,3.7.4s.8-.2,1.3-.2c0-.5-.2-3,.3-3h4.3c.7,0,0,2.5.1,3-1.6,0-3.2,0-4.8,0,0,.8,0,1.5,0,2.3h-4.1c0,.3,0,1.5,0,1.6s-2.4-.2-2.7.3,0,1-.3,1.3-1.9.2-2,.3,0,1.7,0,1.8-2.5,0-3,0l-.2,3.4h-4.6c0,0,0,.8-.4.9-1.2.3-3.6-.3-4.7,0s-.2,1.9-.4,2-2.4,0-2.5,0,.1-2.2,0-2.3c-.2-.2-5.6,0-6.4-.2-.1-.6.2-2.3,0-2.8s-2.3,0-2.4-.2-.1-2.5-.2-3h-2.7s0-10.3,0-10.3l3-.2v-5.7c0,0,1.6,0,1.8-.3.6-.6,0-5.5.4-6.2s2.1-.1,2.6-.2v-7.8c0-.1,2.3.1,2.3,0v-6.5c0-.6,2.4-.2,2.5-.3.2-.2-.2-6.4,0-6.6s1.8,0,2-.3-.2-4.5,0-5.3.7-.3,1.1-.4c3.3-.2,3.4,1.1,3.4-2.6s-.2-.5-.2-.6c0-.3.2-.4.2-.5l5.3-.2c.2,0,.1-.4.1-.5ZM98.1,201h-3c.2,2.3-1,3.8,2.2,3.4s.5-2.4.8-3.4Z"/>
        <path class="st1" d="M124.4,186.2v26.5c0,.1,1.8.2,2.1.2v10s-.3.3-.3.3h-11.1c-.2,0-.3-2.4-.2-2.7h-3.5c-.3,0-.3-.6-.4-.8-.4-3.4.1-7.9,0-11.5s-.9-2.1,1.8-1.9v-14c.3-.8,2.3-.2,2.5-.4s-.3-3,.2-3.3c1.3-.9,5.3,1.6,4.4-2.4h4.6Z"/>
        <path class="st1" d="M141.5,166.5v4.5c0,.6,2.2.2,2.3.3.2.2-.3,5.6,0,6.5s2.3.2,2.5.4c.5.5,0,5.4.3,6s2.3,0,2.4.2c.3.3-.2,6.4,0,7.3.6.1,2.7-.3,2.9.4v8.5c.5,0,2.8-.2,2.8.3v5.4c0,0,1.8,0,1.8,0v3.7h-4.5c-.6,0-.3,2-.3,2.1-.1.1-3.2,0-3.8,0s-1.1.3-1.3.2c-.7-.2-.3-1.9-.4-2.5h5.7c0-.4-.1-3.3-.2-3.4s-.8.1-1.2,0,0-1.3-.6-1.5-4.9,0-5.4,0c-1.1.4-.6,1.7-.7,1.7h-4.8l-.2-17.2h-2.3s-.2-7.4-.2-7.4c-.3-.5-2.3-.3-2.3-.4v-5.3c1.7-.6.6,1.7.9,2.1s2.5,0,3,0c0-.4,0-2.4,0-2.5s1.4.1,1.6,0c.4-.4.2-7.7.5-9,.2-.5.9-.4,1.3-.4Z"/>
        <path class="st2" d="M122.3,165.9c-.2.7-1.8.1-2.4.1s-4.2,0-4.5.3,0,1.2,0,1.3c.3.6,9.8.1,11.3.3s1.7.7,2.6.5v2.5h-4.1c0,0,.1,1.4-.3,1.4h-9c0,.4,0,1.8.3,1.8h8.8c0-.3,0-1.3,0-1.4.1-.1,3.2.1,3.8,0s1.5-1,1.7.1-.4,1-.5,1.2c0,.3,0,1.2,0,1.2h-4.1c0,0,0,1.6,0,1.6h-9c-.5,0-.5,2.1,0,2.1h9c0,0-.2-1.6.1-1.6h2.8c0,.3,0,1.5,0,1.6s-1.5.5-1.7.5c-.5,0-2.6-.1-2.6,0s.1,1.3,0,1.6c-.3.5-8.2.2-9.4.2-.7-.2-.1-1.4-.6-1.7s-2.3,0-2.5-.1c-.5-.4-.3-3.7-.5-3.9s-1.5.5-1.8-.8-.5-2.8-.5-3.6c-.2-2.2.1-4.5,0-6.7,1-.6,3.4.1,4.2-.5s0-1.4.2-1.6c.3-.3,5.4-.3,6.3-.2s2.4.3,2.4.6c-.2.9.2,2.7,0,3.4Z"/>
        <path class="st1" d="M131.7,178.4v5.9c.6.1,2.7-.3,2.9.4l.3,12.9c.6,0,2-.3,2.3.4.4,3.4-.5,7.9,0,11.1s2,.8,2.9.8l.2,5.3c-2.6-.1-6.3-.6-8.8-.2s-.3.4-.5.5c-.5.1-1.2,0-1.7,0l-.2-36.2c.1-.1,1.4.1,1.7,0s.1-1.1.8-.9Z"/>
        <path class="st2" d="M133.1,171.2c-.2-.6-1.4-.1-1.6-.5-.5-.6,0-3.4-.2-3.5s-1,0-1.4-.1-.3-.7-.6-.8c-.6-.1-3.4.1-3.7-.2,0-.7.1-4-.3-4.3s-1.5,0-1.9,0-.6-4.7-.6-5.5c.7,0,1.5,0,2.2,0s.7-.4,1.2-.4c.7,0,4.1-.1,4.4-.5s0-.9.2-.9c.6-.1,5.6-.1,6.1,0s.3.9.4.9h5c-.3.7,0,3.1-.3,3.4-.4.6-2.7,0-2.8.9l-.6,9.6-2.5.2v5.3l-3-.2c-.2-.9.2-2.6,0-3.3ZM131.5,160.3c0,0,.1-1.7-.4-1.8-1.4.3-3.3,0-4.5.2s-.6,1.1-.5,1.8c.6.2,5.3,0,5.5-.2Z"/>
        <path class="st2" d="M95.5,163.3c.1-2.4,1.2-1,1.6-1.4s-.2-2.5,0-3.1,1.2-.3,1.3-.4-.2-1.9,0-2.3,1-.1,1.3-.3c.4-.3,0-1.3.2-1.5s1.5-.1,1.8-.3.1-.9.4-1.1c.5-.3,2.2-.3,2.6-.5s.1-1.2.2-1.3c.4-.4,4.6,0,4.8-.2s-.2-1,.2-1.3c.9-.6,2.9-.1,3.8,0s5.6-.2,5.8,0-.3,1.1.4,1.3,3.3-.2,3.7.3,0,2.4,0,3h-4.6s0-.9,0-.9h-8.7c0,.3,0,1.1,0,1.1-.1.1-2.6-.1-2.7,0s.2,1-.2,1.3-1,0-1.3.2-.1.4-.3.5-.7.2-.8.4,0,.8-.1.9-.9,0-1.2.2,0,.8-.1.9-.8-.1-1,.2,0,1.1,0,1.2-1.2-.2-1.5.2,0,2,0,2.1-.8,0-.9,0,0,1.7,0,1.8-1.3,0-1.4,0,0,1.3,0,1.6c-2.9,0-3.4.7-3.2-2.5Z"/>
        <path class="st2" d="M108.1,146.6c0,.5.2,2.5-.3,2.5h-5.8c0,.3,0,1.1,0,1.1-.1.1-3.3-.2-3.6.3s0,1.3,0,1.3h-5.3v3.2s0,.4-.1.5l-5.3.2c0-1.1,0-2.3,0-3.4h3.7c0,0-.1-1.3,0-1.6s1.2-.1,1.3-.2c.4-.4-1.2-3,2.4-2.3s0,.7.3.7,2.7,0,2.9,0c.4-.1.5-2.1,1-2.3,3,0,6,0,9,0,0-.8,0-1.5,0-2.3h7.7c.4,0,.5,2,.2,2.3s-5.7.2-6.7.2-.9-.2-1.2-.2Z"/>
        <path class="st2" d="M111.6,184.3c0,.9,0,1.8,0,2.7-3.3.7-1.9-1.7-2.3-2.1s-1.4.3-1.6-.4,0-2.5,0-2.6-1.3,0-1.6,0v-9.4c.8-.2.4.8.7,1.1s.5,0,.7.3c.8,1,0,7.3.3,7.6.4.4,2.5-1,1.8,2.7.6,0,1.2,0,1.8,0,0-.6,0-1.2,0-1.8h1.6s0,1.8,0,1.8c-.5,0-1.1,0-1.6,0Z"/>
        <path class="st2" d="M87.3,156.2s.2.3.2.6c0,3.8-.1,2.4-3.4,2.6v-3.2s3.2,0,3.2,0Z"/>
        <path class="st1" d="M117,157.3v1.8h-5.5c0-.4,0-1.8.3-1.8h5.1Z"/>
        <path class="st2" d="M119.8,148.2h-2.3s0-1.6,0-1.6c1.5,0,2.6-.4,2.3,1.6Z"/>
        <path class="st0" d="M98.1,201c-.2,1.1.7,3.3-.8,3.4-3.1.4-2-1.1-2.2-3.4h3Z"/>
        <path class="st0" d="M131.5,160.3c-.2.2-4.8.4-5.5.2,0-.7-.3-1.6.5-1.8,1.2-.2,3.2,0,4.5-.2.5,0,.4,1.7.4,1.8Z"/>
      </g>
      <g>
        <path class="st2" d="M135.1,45.7c0,0-.2-2.4.4-2.5h13.9c.8,0,.4-1.1.9-1.3s3.8,0,4,.2c.3.4-.6,1.7,1.9,1.4-.2,1.2.9,8.7.5,9.2s-1.9-.2-2.4.2,0,1.5-.1,1.6-1.6,0-1.8.3-.1,4,0,4.4c.2,1.1,1.8.4,2.1.6s-.1,2.2,0,2.3,1.8-.1,2,.3,0,1.2,0,1.6.6.2.7.7-.1,1.8,0,2.6c-.6,0-3.4,0-3.6.2s-.3,1.9.6,2,2.9,0,3.2,0,0-.7.5-.9,1.4,0,1.5,0c.2-.2,0-5.9-.1-6.2-.3-.5-1.7,0-1.9-.2-.4-.3-.1-2.8-.3-3s-1.9,0-2.3,0v-3.2c3.2-.9,2.5.5,2.5,3,.4,0,2.4.1,2.5.2s-.1,1.5,0,1.9.6.2.7.7c.3,1.8-1,2.1,1.8,2,.2,1,.8,8.4.5,8.7s-1.5,0-1.6,0c-.2.2,0,4.2,0,4.9s-.3,3.8-.5,4-1.2-.2-1.5.2.1,2.3-.4,2.3h-17.3c-.5,2.8,1.4,1.4,2,1.9s0,.9.4,1.1c.7.5,2.3,0,2.9.2s0,.9.7.9h4.3c.4,0,.2,2,.1,2.1s-1.4-.2-1.8,0,0,2-.2,2.2-2-.1-2.1,0,0,1.7,0,1.8-1.3-.1-1.7,0c-.6.2-.2,1.1-.4,1.3s-1.7.2-1.8.3c-.1.1.1,2,0,2.1-.2.2-4.4.4-4.6.2s.2-1.2-.2-1.5-2.3,0-2.5-.4.2-1.2-.2-1.5-2.4-.2-2.5-.3.2-1.4-.1-1.8-1.7,0-2.2-.3-.1-1.4-.2-1.5-2,.1-2.1,0c-.2-.2,0-5.1-.5-5.5s-1.7,0-1.8,0c-.3-.3,0-7.5-.2-8.6,0-.2,2.8-.7,2.8,0v4.5c0,.1,2,.2,2.1.2s0,1.1,0,1.5c.2.6,1.1.3,1.6.4s.5.5,1,.6,1.7,0,2.4,0v-2.7c-.4,0-2.4-.1-2.5-.2s0-1.6-.3-1.8-1.8-.3-2.2-.3c0-1.9,0-4.1-.6-5.9s-.4-.8-1.2-.7l3.9-.5v-5.3l-2.5-.2c.2-2.4-.7-5.6-.2-7.9s2,0,2.3-.9.3-6,0-6.3-2.5.3-2.5-.3v-4.8s.3-.3.3-.3c.6,0,4.1.1,4.2,0ZM148.4,55.1h-8.7c0,0,0,1.2-.3,1.3s-1,0-1.1,0,.1.9,0,1.1-1.3.2-1.3.3v3.2h3c.2-.9-.6-3,.8-3h3.3v3.9h3.9c-.3-2.4.6-4.5.5-6.9ZM149.5,76.6h3.8c.4,0,.3-1.1.4-1.1.2-.2,3.1.1,3.7,0s.3-1.3.4-1.4c.2-.2,2.1.2,2.5-.1s.3-1.4,0-1.6-1.9-.3-2.2-.3c-1.2,0-.6.9-.8,1.1-.3.3-3.5.1-3.6.2s0,1.2-.3,1.3-3.6,0-3.9.3,0,1.3,0,1.6Z"/>
        <path class="st2" d="M122.8,73.4c0,0,0-1.1,0-1.1-.1-.1-1.6.3-2-.2s-.2-2.7-.3-2.8-1.1,0-1.1,0-.2-2-.2-2.4-.1-3.2,0-3.3,1.1.1,1.4,0,0-.9.3-1.1,2.3-.3,2.6,0,0,.7.4.8.9,0,1.2.3.1.9.3,1,.7,0,.8.4,0,1.2,0,1.2,1.1,0,1.1,0c.1.1,0,3.7.2,3.9s1.5,0,1.6,0,0,3.4-.3,3.4c-.8,0-5.9.2-6.1,0ZM123.7,65.2c-.1-.2-1.8,0-2.3,0v1.1s1.6,0,1.6,0c0,1-.7,1.5-.5,2.6s1.1,1.4,1.2,1.4c.4.2,1.5,0,2,0,.3-1.8-.7-.9-.9-1.1s.2-2.5,0-3.1-.9-.2-1.1-.4,0-.5,0-.6Z"/>
        <path class="st2" d="M125.7,43.4c0,0,0-1.5,0-1.6s2.6,0,3.1,0c1.7,0,3.4-.4,5.1-.2.6,3-2,1.3-3,1.9s0,1-.3,1.1c-.9.2-4.9-.3-5.3.2-.6.9.5,1.8-2.3,1.4s-.6-1.7-.8-2.8c.5,0,3.3.1,3.4,0Z"/>
        <path class="st2" d="M132.6,34.5c0-.5-.2-1.7.2-2s6-.3,6.2-.1-.2,1.8.3,1.8h4.9c0,.4.1,1.3,0,1.6s-4.6.3-5,0,.3-1.4-.9-1.4h-5.6Z"/>
        <path class="st2" d="M117,81.4v5.5h-2.7v-5.1c0-.5,2.3-.3,2.7-.3Z"/>
        <path class="st2" d="M146.1,35.4c2.5,0,3.1-.3,2.8,2.4s-1.9,1-2.2.6,0-2.3-.6-3Z"/>
        <path class="st0" d="M148.4,55.1c.1,2.3-.8,4.4-.5,6.9h-3.9v-3.9h-3.3c-1.4,0-.6,2-.8,3h-3v-3.2c0,0,1.2-.1,1.3-.3s0-1,0-1.1.9.1,1.1,0,.2-1.3.3-1.3h8.7Z"/>
        <path class="st0" d="M149.5,76.6c0-.3,0-1.5,0-1.6.3-.3,3.6-.1,3.9-.3s.2-1.3.3-1.3c.1-.1,3.4,0,3.6-.2s-.5-1.1.8-1.1,2.1.2,2.2.3c.3.2.3,1.4,0,1.6s-2.3,0-2.5.1,0,1.3-.4,1.4c-.6.1-3.6-.2-3.7,0s0,1.1-.4,1.1h-3.8Z"/>
        <path class="st0" d="M123.7,65.2c0,0,0,.5,0,.6.2.2.9-.1,1.1.4s-.1,2.9,0,3.1c.2.2,1.2-.6.9,1.1-.5,0-1.6.2-2,0s-1.1-1.2-1.2-1.4c-.2-1.1.5-1.6.5-2.6h-1.6s0-1.1,0-1.1c.4,0,2.1-.1,2.3,0Z"/>
      </g>
    </g>
  </g>
</svg>